<svg xmlns="http://www.w3.org/2000/svg" xmlns:xlink="http://www.w3.org/1999/xlink" viewBox="0 0 512.48 82.51"><defs><style>.cls-1{fill:url(#Degradado_sin_nombre_3);}.cls-2{fill:#fff;}</style><linearGradient id="Degradado_sin_nombre_3" x1="309.11" y1="41.26" x2="512.48" y2="41.26" gradientUnits="userSpaceOnUse"><stop offset="0" stop-color="#f64543"/><stop offset="1" stop-color="#880892"/></linearGradient></defs><g id="Layer_2" data-name="Layer 2"><g id="Layer_2-2" data-name="Layer 2"><rect class="cls-1" x="309.11" width="203.37" height="82.51" rx="19.6"/><path class="cls-2" d="M36.21,36.38C38.38,42,39.8,46,40.73,48.78c1.86-2.92,4-6,8.81-12.34l8.74-11.78c1.92-2.6,4.4-4.4,7.81-4.4,3.22,0,5.7,1.86,6.14,5.7l4.09,36.46H63.55L62.12,48c-.43-4.71-.68-8.06-.74-11.4-1.86,2.91-4,6.07-7.88,11.46L46.12,58.45C43.21,62.54,41,63.1,37.94,63.1s-5.08-.56-6.57-4.65L27.65,48c-2-5.7-3-8.62-3.78-11.4-1.24,3-2.92,7-4.84,11.4L12.58,62.42H0L17.11,26c1.86-3.84,5.08-5.7,8.31-5.7a6.21,6.21,0,0,1,6.26,4.4Z"/><path class="cls-2" d="M144.33,37.81c0,17-11.28,25.29-34.53,25.29-17.92,0-27-5.58-27-17.61,0-17,11.28-25.23,34.53-25.23C135.28,20.26,144.33,25.78,144.33,37.81Zm-12.89,1.3c0-6.7-4.71-8.06-16-8.06-16.68,0-19.71,2.54-19.71,13.2,0,6.7,4.77,8.06,15.93,8.06C128.34,52.31,131.44,49.71,131.44,39.11Z"/><path class="cls-2" d="M203.67,51.76,193.56,62.42H172.73c-13,0-21.57-7.81-21.57-18.29,0-13.64,13-23.19,28.89-23.19h29.07L199,31.73H178.12c-7.62,0-14.07,4.9-14.07,11.47,0,5.15,4.28,8.56,10.54,8.56Z"/><path class="cls-2" d="M258.91,62.42H246.14l2.85-16H224.25l-2.79,16H208.57l7.37-41.48h12.84l-2.67,14.7h24.74l2.6-14.7h12.84Z"/><path class="cls-2" d="M282.1,62.42H269.26l7.38-41.48h12.77Z"/><path class="cls-2" d="M355.46,51.73h-21.7L331.9,62.34H319.13l3.72-21.21h35.71c4.47,0,7.19-2.29,7.19-5.51,0-2.42-1.92-4-5.51-4H324.53l10.41-10.79h26c11.53,0,17.86,5.39,17.86,13.33C378.84,44.48,369.85,51.73,355.46,51.73Z"/><path class="cls-2" d="M390.56,62.34l9.67-10.67h10.35c2.54,0,5.39,0,7.38.13-.87-1.49-2.17-4-3.16-6l-5.52-11L385,62.34H369.79L403,24.83c2.17-2.42,5.08-4.65,9.11-4.65a7.83,7.83,0,0,1,7.38,4.65l19.28,37.51Z"/><path class="cls-2" d="M473.45,62.34H445.67l4.59-25.86h12.83l-2.66,15.19h14.88c7.87,0,14.13-4.59,14.13-11.22,0-5.08-4.34-8.8-10.6-8.8H451.07l10.1-10.79h19.59c13.09,0,21.7,7.19,21.7,17.61C502.46,51.8,489.32,62.34,473.45,62.34Z"/><path class="cls-2" d="M101.68,36l-3,5.21a2.42,2.42,0,0,0,1.62,3.58l8.46,1.71"/><path class="cls-2" d="M124.48,35.42l2.82,5.5a3.29,3.29,0,0,1-2.43,4.74l-9.49,1.43"/></g></g></svg>