<svg xmlns="http://www.w3.org/2000/svg" xmlns:xlink="http://www.w3.org/1999/xlink" viewBox="0 0 165.73 24.52"><defs><style>.cls-1{fill:#02ae98;}.cls-2{fill:#e5a457;}.cls-3{fill:url(#linear-gradient);}.cls-4{fill:url(#linear-gradient-2);}</style><linearGradient id="linear-gradient" x1="13.77" y1="5.56" x2="15.35" y2="4.28" gradientTransform="matrix(1, 0, 0, -1, 0, 26.75)" gradientUnits="userSpaceOnUse"><stop offset="0" stop-color="#e7e631"/><stop offset="0" stop-color="#00a48b"/><stop offset="1" stop-color="#9ccb82"/></linearGradient><linearGradient id="linear-gradient-2" x1="22.18" y1="10.15" x2="23.76" y2="8.87" xlink:href="#linear-gradient"/></defs><title>Asset 1</title><g id="Layer_2" data-name="Layer 2"><g id="Layer_1-2" data-name="Layer 1"><path class="cls-1" d="M43.88,6.18h2.69V16.7l-2.75,2.79-1.66-1.64V19l-2.69.53V17.85L37.8,19.49,35.05,16.7V6.18h2.69V16.23l1.74-1.91V8l-.81-1.86h3.5v8.14l1.74,1.91v-10Z"/><path class="cls-1" d="M55.36,6.18h4.4V19.27H57.07v-4l-2.26-.15h0v4.14H52.11V15.38l-1-2.27h1v-4a3,3,0,0,1,.38-1.5,2.86,2.86,0,0,1,1.1-1.08A3.91,3.91,0,0,1,55.36,6.18Zm-.54,6.94h2.26V8.4h0l-.69,0a2.84,2.84,0,0,0-1.17.16c-.26.14-.39.54-.39,1.21v3.37Z"/><path class="cls-1" d="M69.86,6.18h2.68V19.27H69.86V12.66l-2-2.57v9.17H65.27V6.16h2.59l.06.07,1.93,2.55Z"/><path class="cls-1" d="M81.3,6.18h4.41V19.27H83v-4l-2.26-.15h0v4.14H78.06V15.38l-1-2.27h1v-4a3,3,0,0,1,.38-1.5,2.86,2.86,0,0,1,1.1-1.08A3.84,3.84,0,0,1,81.3,6.18Zm-.54,6.94H83V8.4h0l-.69,0a2.84,2.84,0,0,0-1.17.16c-.26.14-.39.54-.39,1.21v3.37Z"/><path class="cls-1" d="M96.43,19.27l-1.34-3.48L94,16.57v2.7H91.27V6.18H94v7.4c.55-.4,1.19-.91,1.94-1.54V6.18h2.64V13.1c-.34.32-.72.65-1.13,1l1.92,5.19H96.43Z"/><path class="cls-1" d="M107.29,6.18h4.41V19.27H109v-4l-2.26-.15h0v4.14h-2.69V15.38l-1-2.27h1v-4a3,3,0,0,1,.38-1.5,2.86,2.86,0,0,1,1.1-1.08A3.9,3.9,0,0,1,107.29,6.18Zm-.54,6.94H109V8.4h0l-.69,0a2.84,2.84,0,0,0-1.17.16c-.26.14-.39.54-.39,1.21v3.37Z"/><path class="cls-2" d="M123.46,8.45,119.9,8.2v4.92h3.56v2.26l-3.56-.25v4.14h-2.69V15.38l-1-2.27h1V6.18h6.25Z"/><path class="cls-2" d="M131.65,6.18h4.42V19.27h-2.7v-4l-2.25-.15h0v4.14h-2.69V15.38l-1-2.27h1v-4a3,3,0,0,1,.38-1.5,2.86,2.86,0,0,1,1.1-1.08A3.86,3.86,0,0,1,131.65,6.18Zm-.53,6.94h2.27V8.4h0l-.69,0a2.84,2.84,0,0,0-1.17.16c-.26.14-.39.54-.39,1.21v3.37Z"/><path class="cls-2" d="M146.09,19.3l-.89-3.44-.9.64v2.78h-2.69V6.18h3.89a3.5,3.5,0,0,1,1.74.4,2.79,2.79,0,0,1,1.1,1.08,2.94,2.94,0,0,1,.38,1.5V13c-.36.34-.76.69-1.22,1.06l1.37,5.2Zm-1.8-10.91v5.16A11.17,11.17,0,0,0,146.23,12V10.59c0-.54,0-.95,0-1.25a1,1,0,0,0-.21-.65.9.9,0,0,0-.58-.26c-.23,0-.52,0-.9,0Z"/><path class="cls-2" d="M162.45,6.18h3.28V19.27H163V8.93l-1.75,1.91v8.43H158.6V10.84l-1.74-1.91V19.27h-2.68V6.18h3.26l2.49,2.46Z"/><path class="cls-1" d="M10.46,8.1A38.59,38.59,0,0,0,7.27,1.5,1.7,1.7,0,0,0,5.68.61c-.66,0-1.32,0-2,0H1.55A1.47,1.47,0,0,0,.07,2.07a9.45,9.45,0,0,1,0,1.19A1.34,1.34,0,0,0,.83,4.58,20.41,20.41,0,0,1,6.59,9.77a24.86,24.86,0,0,1,3.09,4.82c.05.1.06.24.22.23s.16-.11.18-.22a13.83,13.83,0,0,0,.38-2c.13-1.34.06-2.69.06-4A1.09,1.09,0,0,0,10.46,8.1Z"/><path class="cls-1" d="M15.92,5.64a20.08,20.08,0,0,0,.53-3.46A1.31,1.31,0,0,0,15.56.75,5.26,5.26,0,0,0,13.51.69c-1,.13-1.33.53-1.35,1.58,0,.66-.05,1.32-.06,2-.06,2-.08,4-.11,6.06a12,12,0,0,1-.09,1.58,4.69,4.69,0,0,0-.05,1.6A17.23,17.23,0,0,0,14,10.58,17.65,17.65,0,0,0,15.92,5.64Z"/><path class="cls-2" d="M23.16,14.17a1.27,1.27,0,0,0-1.62.34,52.14,52.14,0,0,1-5.63,5.19c-.09.07-.28.12-.22.29s.23.1.35.1h3.21c1,0,2.11,0,3.16,0a1.33,1.33,0,0,0,1.52-1.52c0-1,0-2.08,0-3.12A1.28,1.28,0,0,0,23.16,14.17Z"/><path class="cls-1" d="M.22,19.42a1.36,1.36,0,0,0,1.34.65H5.43c1.26,0,2.52,0,3.78,0,.21,0,.62,0,.6-.11a1.07,1.07,0,0,0-.38-.69.59.59,0,0,0-.19-.11L5.86,17.6C4.55,17,3.31,16.23,2,15.55A1.29,1.29,0,0,0,.09,16.66c0,.72,0,1.44,0,2.15A1.16,1.16,0,0,0,.22,19.42Z"/><path class="cls-2" d="M10.46.07A1.54,1.54,0,0,0,8.94.5,1.46,1.46,0,0,0,8.78,2c.68,1.21,1.46,2.35,2.06,3.66.05-.08.08-.11.08-.13a34,34,0,0,1,.45-4.14A1.26,1.26,0,0,0,10.46.07Z"/><path class="cls-2" d="M.66,12.93a22.89,22.89,0,0,0,2.67,1.2c.08,0,.18.06.25,0s0-.19,0-.28c-.15-.35-.29-.7-.41-1.07l0-.07a.06.06,0,0,1,0,0c0-.12-.14-.46-.24-.87-.05-.17-.09-.36-.13-.54s0-.24-.07-.36h0c-.11-.57-.14-1.07.06-1.12,0,.09.06.24.11.43a.29.29,0,0,0,0,.09h0a6.64,6.64,0,0,0,.89,2.22h0c.18.39.35.79.56,1.17a2.38,2.38,0,0,0,1.54,1.38c.7.19,1.36.53,2,.72.29.08.71.34.88.12s-.12-.59-.24-.88a27.69,27.69,0,0,0-2.86-4.95,32.6,32.6,0,0,0-3.25-4,1.34,1.34,0,0,0-1.4-.42A1.31,1.31,0,0,0,.08,7,36,36,0,0,0,.1,12,1,1,0,0,0,.66,12.93Z"/><path class="cls-3" d="M15.15,22.42,15,22.08A1.51,1.51,0,0,1,15.15,22.42Z"/><path class="cls-1" d="M2.61,21.1h.68v2.65l-.69.7L2.18,24v.28l-.68.13V24l-.42.41-.69-.7V21.09h.68v2.53l.44-.48V21.56l-.2-.47h.88v2.05l.44.48V21.1Z"/><path class="cls-1" d="M6.52,21.22H7.63v3.29H7v-1l-.57,0h0v1H5.7v-1L5.45,23H5.7V22a.73.73,0,0,1,.11-.38.61.61,0,0,1,.28-.27A1.06,1.06,0,0,1,6.52,21.22ZM6.38,23H7V21.78H6.78a.66.66,0,0,0-.29,0c-.07,0-.1.14-.1.3V23Z"/><path class="cls-1" d="M10.71,21.13h.67v3.29h-.67V22.76l-.49-.65v2.31H9.56v-3.3h.65l0,0,.49.64v-.65Z"/><path class="cls-1" d="M14.32,21.22h1.11v3.29h-.68v-1l-.57,0h0v1H13.5v-1L13.25,23h.25V22a.72.72,0,0,1,.1-.38.73.73,0,0,1,.28-.27A1.19,1.19,0,0,1,14.32,21.22ZM14.19,23h.57V21.78h-.17a.66.66,0,0,0-.29,0c-.07,0-.1.14-.1.3V23Z"/><path class="cls-1" d="M18.94,24.52l-.34-.88-.29.2v.68h-.67V21.23h.67v1.86c.14-.1.3-.23.49-.39V21.22h.66V23l-.29.25.48,1.31Z"/><path class="cls-1" d="M22.79,21.22h1.12v3.29h-.68v-1l-.57,0h0v1H22v-1L21.73,23H22V22a.72.72,0,0,1,.1-.38.73.73,0,0,1,.28-.27A1.09,1.09,0,0,1,22.79,21.22ZM22.65,23h.57V21.78h-.17a.66.66,0,0,0-.29,0c-.07,0-.1.14-.1.3V23Z"/><path class="cls-4" d="M23.57,17.83l-.17-.34A2.67,2.67,0,0,1,23.57,17.83Z"/><path class="cls-1" d="M23.89,2.13c0-.17,0-.35,0-.52a1.27,1.27,0,0,0-1.16-1c-1.49,0-3,0-4.48,0a1.26,1.26,0,0,0-1.17,1c-.09,1.09-.17,2.18-.17,3.27l0,.23a30.7,30.7,0,0,1-1.05,4.2l.32-.18h0l0,0L16.26,9l0,0s4-2.22,5.24-6.09c.17,0,.11.21.11.34a4.51,4.51,0,0,1-.32,1.63,9.94,9.94,0,0,1-2.48,3.71c-1.11,1.1-2.26,2.16-3.34,3.29a8.73,8.73,0,0,0-2.58,6c0,.49.1.61.49.45A19.37,19.37,0,0,0,19,14.52a.81.81,0,0,0,.32-.51c.05-.55.14-1.1.18-1.66a8.33,8.33,0,0,1,1.08-3.61,2.2,2.2,0,0,1,1.14-1.11,11.24,11.24,0,0,0-1.12,5.25c0,.11-.05.26.07.32s.21-.07.3-.14a17.05,17.05,0,0,0,2.49-2.39,1.73,1.73,0,0,0,.48-1.23C23.88,7,23.89,4.57,23.89,2.13Z"/></g></g></svg>