<svg fill="none" height="21" viewBox="0 0 78 21" width="78" xmlns="http://www.w3.org/2000/svg" xmlns:xlink="http://www.w3.org/1999/xlink"><linearGradient id="a"><stop offset="0" stop-color="#f9c190"/><stop offset=".515625" stop-color="#e15783"/><stop offset="1" stop-color="#8941d8"/></linearGradient><linearGradient id="b" gradientUnits="userSpaceOnUse" x1=".00061" x2="22.1211" xlink:href="#a" y1="16.2793" y2="53.8118"/><linearGradient id="c" gradientUnits="userSpaceOnUse" x1="14.8361" x2="24.9715" xlink:href="#a" y1="1.65039" y2="2.55435"/><path clip-rule="evenodd" d="m77.063 20.818c.2415-.1189.4212-.2836.5457-.4877.1235-.2031.1853-.4268.1844-.6748 0-.2977-.0674-.5429-.2041-.7292-.132-.1835-.2929-.3285-.481-.4259-.1854-.0973-.4268-.1956-.7217-.2957-.2031-.0749-.3603-.1348-.4689-.1826-.1086-.0477-.2002-.1085-.2723-.1853-.0683-.0767-.103-.1675-.103-.2761 0-.1329.0365-.2359.1189-.3061.0776-.0693.1843-.1048.3144-.1048.1526 0 .2743.0449.3651.1357.088.0889.1422.2078.1656.3613h1.2037c-.0393-.4259-.2106-.76-.512-1.0034-.3032-.2424-.7085-.3641-1.2224-.3641-.3135 0-.5962.0533-.8404.1601-.2462.1057-.4399.2592-.5794.4577-.1366.2003-.2059.4352-.2059.7104 0 .2967.0646.5354.1975.7188.1338.1854.2911.322.4773.4184.1844.0917.4212.1891.7114.2893.1993.0692.3565.13.4688.1787.1124.0506.2088.1133.2837.1938.0758.0767.1142.175.1142.2911 0 .131-.0431.234-.1246.3126-.0823.0786-.1946.117-.3378.117-.1638 0-.3005-.0477-.4081-.1488-.1039-.0983-.1656-.235-.1844-.4109h-1.1867c.0308.4521.2143.804.5475 1.0558.3369.2527.7609.3772 1.2776.3772.3425 0 .6326-.0599.8769-.1825zm-37.7278-3.3949c-.204-.3566-.4829-.6374-.8339-.8386-.3529-.2022-.7478-.3033-1.183-.3033-.4287 0-.8227.1011-1.1756.3033-.3528.2003-.6327.4811-.8377.8386-.2115.3585-.3098.7628-.3098 1.2159 0 .4492.0983.8564.3098 1.2158.205.3604.4849.6412.8377.8433.3529.2013.7469.3024 1.1756.3024.4305 0 .8217-.1011 1.1746-.3024.3547-.2012.6336-.482.8423-.8433.205-.3594.3089-.7675.3089-1.2158 0-.454-.102-.8574-.3089-1.2159zm-3.2093 1.2159c0-.4081.1095-.732.3229-.9697.2152-.2349.5054-.3538.8695-.3538.3669 0 .6533.1189.8676.3585.2181.2377.3239.5587.3239.965 0 .4015-.1086.7235-.3258.9612-.2162.2406-.5035.3594-.8657.3594-.3641 0-.6543-.1188-.8695-.3594-.2134-.2377-.3229-.5588-.3229-.9612zm-19.7855-1.8705c.3828.3099.6327.7255.745 1.2515h-1.1774c-.088-.2125-.2209-.381-.4006-.5008-.1826-.1226-.395-.1844-.6421-.1844-.3276 0-.5887.1217-.789.3595-.2003.2396-.3005.5588-.3005.9566 0 .4015.1002.7179.3005.9538.2003.2377.4614.3566.789.3566.2471 0 .4586-.0609.6421-.1844.1787-.1189.3126-.2846.4006-.4905h1.1774c-.1123.5195-.3622.9342-.745 1.2449-.3847.3108-.8695.4662-1.4545.4662-.4483 0-.8405-.0993-1.1812-.2968-.336-.1975-.5999-.4745-.7824-.8302-.1844-.3538-.278-.761-.278-1.2187 0-.454.0936-.8621.278-1.2159.1825-.3566.4464-.6355.7824-.8321.3398-.1984.7329-.2958 1.1812-.2958.585-.0018 1.0698.1517 1.4545.4605zm-12.73356.4702v-.8863h-3.60622965v.8863h1.23637965v3.7176h1.12221v-3.7176zm4.18669.964v-.964h1.75211v-.8863h-2.8659v4.6039h2.8659v-.8919h-1.75211v-1.023h1.55649v-.8387zm16.50167 2.7536v-4.6039h-1.1222v1.783h-1.7437v-1.783h-1.1138v4.6039h1.1138v-1.9215h1.7437v1.9215zm7.4603 0h-1.1119l-1.8626-2.8256v2.8256h-1.1128v-4.6039h1.1128l1.8626 2.8518v-2.8518h1.1119zm12.2305-.8517h1.4844v.8517h-2.5982v-4.6039h1.1138zm8.8128-2.6815c-.2059-.3566-.4839-.6374-.8376-.8386-.3538-.2022-.7479-.3033-1.1831-.3033-.4296 0-.8218.1011-1.1737.3033-.3547.2003-.6327.4811-.8405.8386-.2068.3585-.3098.7628-.3098 1.2159 0 .4492.103.8564.3098 1.2158.2069.3604.4849.6412.8405.8433.3519.2013.7441.3024 1.1737.3024.4314 0 .8255-.1011 1.1756-.3024.3528-.2012.6326-.482.8404-.8433.2078-.3594.308-.7675.308-1.2158 0-.454-.0993-.8574-.3033-1.2159zm-3.2131 1.2159c0-.4081.1067-.732.321-.9697.2153-.2349.5073-.3538.8705-.3538.365 0 .6542.1189.8685.3585.2171.2377.3248.5587.3248.965 0 .4015-.1114.7235-.3267.9612-.219.2406-.5035.3594-.8666.3594-.3632 0-.6561-.1188-.8705-.3594-.2143-.2377-.321-.5588-.321-.9612zm10.3277-1.9088c.3725.2826.6047.6645.6983 1.1457h-1.1803c-.0767-.1639-.1975-.2958-.3594-.3932-.1591-.0973-.3528-.1479-.5784-.1479-.3529 0-.6337.1189-.8471.3567-.2115.2368-.3173.5569-.3173.9594 0 .438.1114.7759.3333 1.009.2265.2349.5419.3519.9556.3519.2649 0 .497-.072.6945-.2162.2012-.1469.3416-.3547.4258-.6224h-.9425v-.8013h1.8719v1.1017c-.0861.2687-.2255.5186-.4165.7488-.19.2303-.4343.4166-.731.5598-.2967.1441-.6374.2153-1.0183.2153-.467 0-.8713-.0993-1.2177-.2968-.3491-.1975-.6168-.4745-.8058-.8302-.1882-.3538-.2827-.761-.2827-1.2187 0-.454.0945-.8621.2827-1.2159.189-.3566.4539-.6355.8002-.8321.3454-.1984.7488-.2958 1.2111-.2958.5766-.0018 1.0483.1386 1.4236.4222zm5.0982 4.2261v-4.6039h-1.1138v4.6039zm4.4864-3.7176v.964h1.5575v.8387h-1.5575v1.023h1.7512v.8919h-2.8641v-4.6039h2.8641v.8863z" fill="url(#b)" fill-rule="evenodd"/><g fill="#fff"><path d="m8.65195 6.66877c.41088.51572.61679 1.1138.61679 1.79518 0 .99868-.33135 1.77835-.99588 2.33715-.66359.5606-1.61823.8395-2.85649.8395h-5.41637v-11.6406h5.28532c1.18398 0 2.10026.257387 2.74981.774977.64674.514783.9706 1.251393.9706 2.204203 0 .70292-.18625 1.28696-.55969 1.75494-.37438.46518-.86296.7703-1.46571.9135.70196.1638 1.26074.50449 1.67162 1.02115zm-5.83567-1.91031h1.84288c.9762 0 1.46571-.41651 1.46571-1.25046 0-.83488-.49981-1.25232-1.49847-1.25232h-1.81106v2.50278zm3.5716 3.31051c0-.41744-.13665-.74503-.41088-.97995-.27423-.2368-.66359-.3538-1.16994-.3538h-1.99078v2.61697h2.0076c1.04172 0 1.564-.42774 1.564-1.28322z"/><path d="m13.4011.0683594v11.5722406h-2.8153v-11.5722406z"/><path d="m32.6631 3.31782c.8021.65329 1.3065 1.54992 1.5143 2.69177h-2.9791c-.088-.39497-.2696-.70289-.5429-.9219-.2751-.21901-.6196-.32945-1.0361-.32945-.4951 0-.9013.19467-1.2195.58496-.3191.38935-.4773.95747-.4773 1.70248 0 .74688.1582 1.31499.4773 1.70341.3182.39029.7235.58496 1.2195.58496.4165 0 .761-.10951 1.0361-.32945.2733-.21901.4549-.52694.5429-.92097h2.9791c-.2078 1.14091-.7122 2.03847-1.5143 2.69177-.8003.6523-1.7933.979-2.9801.979-.8995 0-1.6978-.1891-2.3951-.5681-.6963-.3781-1.243-.9238-1.6379-1.63698-.395-.71506-.5934-1.54805-.5934-2.50364 0-.96496.1956-1.80169.584-2.5102.3894-.70851.936-1.25135 1.6398-1.62947.7011-.37812 1.5022-.56812 2.4017-.56812 1.1877.00094 2.1798.32758 2.981.97993z"/><path d="m41.0423 11.6406-2.7489-3.90201v3.90201h-2.8163v-11.5722406h2.8163v6.0734706l2.7489-3.6877h3.3104l-3.7054 4.59278 3.7868 4.59369z"/><path d="m51.423 3.21121c.6963.58215 1.1334 1.34962 1.3094 2.30522h-2.6347c-.0768-.37251-.25-.66639-.5186-.88072-.2686-.21434-.6065-.32197-1.0117-.32197-.3201 0-.5607.06926-.7244.20684-.1657.13665-.2471.33133-.2471.5831 0 .28733.1497.50073.4511.64393.3014.14132.7768.28546 1.4245.42772.702.16566 1.2785.33132 1.7287.50166.4492.17128.8396.44738 1.169.83205.3295.38374.4942.90038.4942 1.54711 0 .52694-.1432.99395-.4287 1.39925-.2854.4071-.6963.7235-1.2345.9556-.5382.2302-1.1746.3453-1.9102.3453-1.2392 0-2.2332-.2742-2.9801-.8236-.7469-.5484-1.2009-1.3337-1.3665-2.35388h2.7161c.0449.39497.2116.69635.5017.90506.292.20872.6682.31354 1.1278.31354.3191 0 .5606-.07487.7244-.22275.1657-.14695.248-.34162.248-.58403 0-.31822-.1516-.54565-.453-.6823-.3013-.13665-.7936-.28359-1.4731-.43709-.6805-.14132-1.2402-.29575-1.6791-.46141-.4399-.16379-.818-.4296-1.1363-.79836-.3191-.36783-.4773-.87043-.4773-1.50687 0-.82176.3116-1.48908.9387-2.00011.6253-.51008 1.5078-.76465 2.6497-.76465 1.1643-.00094 2.0947.29014 2.792.87136z"/><path d="m59.464 9.22028v2.42032h-1.2673c-1.0764 0-1.9131-.2667-2.5103-.7993-.599-.5316-.8985-1.41325-.8985-2.6412v-3.37501h-1.2345v-2.37074h1.2345v-2.25562h2.8154v2.25562h1.8448v2.37074h-1.8448v3.42368c0 .36314.0749.61491.2228.75811.1478.1432.3968.21433.7487.21433h.8892z"/><path d="m66.1819 2.81624c.5036.31728.8779.75156 1.1185 1.30095v-1.66316h2.7995v9.18627h-2.7995v-1.66318c-.2406.55038-.6149.98368-1.1185 1.30188-.5054.3182-1.11.4773-1.812.4773-.7572 0-1.4348-.189-2.0338-.5681-.5981-.3781-1.0698-.9237-1.4152-1.63693-.3463-.71506-.5185-1.54804-.5185-2.50364 0-.96496.1722-1.80169.5185-2.51019.3454-.70851.8171-1.25136 1.4152-1.62948.599-.37812 1.2766-.56811 2.0338-.56811.7029-.00094 1.3066.15817 1.812.47639zm-2.3623 2.58413c-.3679.39497-.5523.94437-.5523 1.64632 0 .70383.1844 1.25229.5523 1.64726.3678.39496.8526.59338 1.4582.59338.5915 0 1.0763-.20403 1.4554-.60929.38-.40714.5681-.94905.5681-1.63041 0-.69072-.1881-1.23638-.5681-1.6379-.3781-.40058-.8639-.60088-1.4554-.60088-.6056-.00093-1.0913.19655-1.4582.59152z"/><path d="m76.0509 2.84774c.555-.32946 1.155-.49325 1.8036-.49325v3.01377h-.8059c-.7469 0-1.3253.15911-1.7371.47733-.4109.31823-.6177.8564-.6177 1.61359v4.18182h-2.8154v-9.1873h2.8154v1.7287c.3509-.55876.804-1.00427 1.3571-1.33466z"/></g><path d="m19.4682 4.81288 1.8915 1.09222v2.18537l-1.8915 1.09222-1.8935-1.09222v-2.18537zm0-3.16249-4.6321 2.673v5.34879l4.6321 2.67202 4.6301-2.67202v-5.34879z" fill="url(#c)"/></svg>