<svg width="405" height="148" viewBox="0 0 405 148" fill="none" xmlns="http://www.w3.org/2000/svg">
<g clip-path="url(#clip0)">
<path d="M55.045 81.288L73.1367 94.9485C73.1367 94.9485 44.383 81.5474 36.0323 89.4757C24.1901 100.715 45.0357 108.064 45.0357 108.064L36.1843 108.341C25.8621 102.371 20.2338 94.1531 17.5918 85.0663L22.8892 81.1411C27.5095 77.7194 33.1736 75.8775 38.9931 75.9041C44.8125 75.9307 50.4583 77.8243 55.045 81.288Z" fill="white"/>
<path d="M38.871 78.0666C44.2319 78.0735 49.4379 79.8059 53.6681 82.9904L59.7389 87.5727C54.7141 86.0554 49.144 84.8104 44.3607 84.8104C39.9841 84.8104 36.6626 85.8608 34.481 87.9315C30.9762 91.2558 29.5993 94.7055 30.3772 98.1768C30.6935 99.5223 31.2864 100.792 32.1207 101.912C32.1762 101.992 32.2 102.089 32.1875 102.185C32.175 102.281 32.1272 102.37 32.0527 102.434C31.9783 102.499 31.8823 102.535 31.7822 102.537C31.6822 102.539 31.5849 102.506 31.5082 102.444C26.194 98.0629 22.2686 92.3188 20.1846 85.8738L24.2572 82.8478C28.4476 79.7278 33.5914 78.0429 38.8799 78.058L38.871 78.0666ZM38.8799 75.8965C33.1019 75.8922 27.484 77.7324 22.8982 81.1316L17.5918 85.0654C20.2338 94.1436 25.8442 102.357 36.1977 108.344L45.0491 108.068C45.0491 108.068 24.2035 100.719 36.0457 89.4791C37.9501 87.6721 40.914 86.9761 44.3607 86.9761C56.0106 86.9761 73.1367 94.9519 73.1367 94.9519L55.045 81.2915C50.4269 77.8004 44.7327 75.9056 38.871 75.9095L38.8799 75.8965Z" fill="url(#paint0_linear)"/>
<path d="M27.5872 111.648C26.529 112.849 25.6818 114.21 25.0793 115.677C24.9687 115.941 24.9354 116.229 24.9831 116.511C25.0308 116.792 25.1576 117.055 25.3497 117.271C25.5418 117.487 25.7917 117.648 26.0721 117.736C26.3524 117.824 26.6524 117.835 26.939 117.769C29.0893 117.247 31.333 117.196 33.5061 117.621C35.6792 118.046 37.7266 118.935 39.4986 120.223C41.2705 121.511 42.7223 123.166 43.7475 125.067C44.7728 126.968 45.3457 129.066 45.4242 131.209C45.4376 131.493 45.5316 131.768 45.6958 132.004C45.86 132.24 46.0882 132.428 46.3554 132.547C46.6225 132.667 46.9184 132.712 47.2107 132.68C47.5029 132.647 47.7803 132.538 48.0126 132.363C49.6585 131.13 51.0185 129.577 52.0045 127.803C52.9905 126.03 53.5806 124.076 53.7367 122.069C53.8928 120.061 53.6114 118.044 52.9106 116.148C52.2099 114.252 51.1054 112.52 49.6686 111.062C48.2318 109.605 46.4948 108.456 44.5698 107.689C42.6448 106.922 40.5747 106.554 38.4934 106.609C36.4121 106.664 34.366 107.141 32.4873 108.009C30.6086 108.877 28.9393 110.117 27.5872 111.648Z" fill="url(#paint1_linear)"/>
<path d="M97.313 54.1095C90.1603 40.4923 78.6669 31.0424 64.8399 24.3029C58.4403 21.1575 51.6912 18.7267 44.723 17.0577C44.4816 16.9929 44.2357 16.9367 43.9854 16.8848C40.9768 16.1758 38.2945 15.683 36.1085 15.3458C35.5553 15.2606 34.9884 15.3306 34.475 15.5475C33.9617 15.7645 33.5235 16.1192 33.2124 16.5698C32.9014 17.0203 32.7305 17.5477 32.72 18.0893C32.7096 18.6309 32.86 19.1641 33.1535 19.6255L37.32 26.2093C39.5552 31.9675 38.6164 34.8076 33.5648 38.4821C19.5232 48.6842 13.4479 62.2582 15.7636 79.1176C16.8812 87.2577 20.4844 94.3386 26.1797 100.525C26.212 100.558 26.2545 100.58 26.3009 100.588C26.3474 100.596 26.3952 100.59 26.4374 100.569C26.4796 100.549 26.5139 100.516 26.5351 100.475C26.5563 100.434 26.5634 100.388 26.5552 100.343L26.4211 99.6299C23.7076 94.3127 23.8193 89.1252 27.6102 84.4175C31.4011 79.7098 36.6271 78.3222 42.3313 79.8611C46.4262 80.9678 50.3781 82.831 54.16 84.7547C61.2814 88.3643 67.9736 92.9164 75.3498 95.8992C86.8924 100.564 97.0358 95.428 100.241 83.9247C103.098 73.6967 102.306 63.6199 97.313 54.1095Z" fill="url(#paint2_linear)"/>
<path d="M56.6463 72.6334C56.2842 74.8813 63.3072 76.9563 67.1562 78.733C71.3316 80.6524 76.3876 84.4609 77.7958 81.7591C79.204 79.0573 75.1136 72.9793 70.1201 71.0772C65.1267 69.1751 57.1202 69.6982 56.6463 72.6334Z" fill="white"/>
</g>
<g clip-path="url(#clip1)">
<path d="M181.661 77.0956C183.104 78.912 183.869 81.145 183.832 83.4327C183.832 87.0888 182.577 89.9093 180.068 91.8944C177.558 93.8795 173.959 94.872 169.269 94.872H146.571V53.1284H168.658C173.064 53.1284 176.531 54.0519 179.06 55.8989C181.589 57.7458 182.854 60.4378 182.854 63.9746C182.927 66.1857 182.226 68.3562 180.864 70.137C179.551 71.8022 177.68 72.9789 175.57 73.4681C177.984 73.9389 180.144 75.2254 181.661 77.0956ZM160.165 69.4018H165.425C166.647 69.4018 167.555 69.1662 168.148 68.6949C168.457 68.419 168.698 68.0789 168.851 67.7003C169.004 67.3217 169.066 66.9145 169.033 66.5094C169.033 65.4912 168.738 64.7356 168.148 64.2427C167.558 63.7498 166.65 63.5034 165.425 63.5034H160.156L160.165 69.4018ZM169.058 83.6927C169.648 83.2378 169.943 82.5025 169.943 81.4788C169.943 79.4748 168.741 78.4727 166.335 78.4727H160.156V84.3671H166.335C167.558 84.3725 168.465 84.1477 169.058 83.6927Z" fill="#1D1F4D"/>
<path d="M213.198 84.9683H225.751V94.872H200.134V53.1284H213.198V84.9683Z" fill="#1D1F4D"/>
<path d="M252.861 53.1284V76.4285C252.861 78.3356 253.287 79.8444 254.138 80.9549C254.99 82.0654 256.367 82.6206 258.269 82.6206C260.18 82.6206 261.586 82.0654 262.486 80.9549C263.387 79.8444 263.843 78.3356 263.854 76.4285V53.1284H276.988V76.4285C276.988 80.3634 276.156 83.7163 274.491 86.4872C272.901 89.2028 270.522 91.3888 267.657 92.7638C264.639 94.1952 261.322 94.9156 257.97 94.8681C254.684 94.9321 251.431 94.2099 248.492 92.7638C245.747 91.3729 243.498 89.1934 242.044 86.5154C240.502 83.7499 239.729 80.3822 239.727 76.4124V53.1284H252.861Z" fill="#1D1F4D"/>
<path d="M295.86 63.1616C297.505 60.0633 300.059 57.4934 303.207 55.7681C306.394 54.0106 310.145 53.1318 314.459 53.1318C317.891 53.0739 321.292 53.7565 324.411 55.129C327.253 56.3986 329.709 58.3443 331.545 60.781C333.425 63.319 334.678 66.2339 335.208 69.3049H321.039C320.456 68.0217 319.502 66.9254 318.289 66.1454C317.077 65.3848 315.654 64.991 314.205 65.015C313.174 64.9777 312.149 65.1794 311.217 65.6029C310.284 66.0264 309.473 66.6591 308.85 67.4475C307.541 69.0719 306.887 71.2554 306.887 73.9982C306.887 76.741 307.541 78.9259 308.85 80.5529C309.473 81.3413 310.284 81.9741 311.217 82.3976C312.149 82.821 313.174 83.0227 314.205 82.9855C315.654 83.0094 317.077 82.6156 318.289 81.8551C319.501 81.0742 320.455 79.9782 321.039 78.6956H335.208C334.678 81.7665 333.425 84.6815 331.545 87.2195C329.708 89.6551 327.252 91.6005 324.411 92.8715C321.292 94.2439 317.891 94.9265 314.459 94.8686C310.145 94.8686 306.394 93.9885 303.207 92.2284C300.058 90.5057 297.504 87.9369 295.86 84.8388C294.143 81.6673 293.286 78.0525 293.289 73.9942C293.292 69.936 294.149 66.3251 295.86 63.1616Z" fill="#1D1F4D"/>
<path d="M377.219 88.5634H363.001L360.892 94.872H346.853L362.457 53.1284H377.883L393.429 94.872H379.315L377.219 88.5634ZM373.968 78.7124L370.112 67.0985L366.255 78.7124H373.968Z" fill="#1D1F4D"/>
</g>
<defs>
<linearGradient id="paint0_linear" x1="15.117" y1="92.1204" x2="79.5126" y2="93.7995" gradientUnits="userSpaceOnUse">
<stop stop-color="#004BBC"/>
<stop offset="1" stop-color="#3C00BC"/>
</linearGradient>
<linearGradient id="paint1_linear" x1="23.678" y1="119.647" x2="57.0996" y2="120.209" gradientUnits="userSpaceOnUse">
<stop stop-color="#1D1F4D"/>
<stop offset="1" stop-color="#0007A7"/>
</linearGradient>
<linearGradient id="paint2_linear" x1="11.4246" y1="57.9511" x2="111.872" y2="59.5049" gradientUnits="userSpaceOnUse">
<stop stop-color="#1D1F4D"/>
<stop offset="1" stop-color="#0007A7"/>
</linearGradient>
<clipPath id="clip0">
<rect width="86.6038" height="117.379" fill="white" transform="translate(15.2832 15.3105)"/>
</clipPath>
<clipPath id="clip1">
<rect width="246.857" height="41.7436" fill="white" transform="translate(146.571 53.1284)"/>
</clipPath>
</defs>
</svg>