<svg width="100px" height="46" viewBox="0 0 183 46" fill="none" xmlns="http://www.w3.org/2000/svg" class="hidden-xs hidden-sm hidden-md"><path d="M113.862 45.5704V3.05176e-05H125.253V45.5704H113.862Z" fill="white"></path><path d="M56.9316 3.05176e-05V17.0884L85.4114 45.5704H102.5L68.3231 11.3915H91.1083V16.1886H102.5V11.3915V9.77102V3.05176e-05H56.9316Z" fill="white"></path><path d="M45.5888 0H0V11.3915H45.5888V0Z" fill="white"></path><path d="M45.5888 28.4802V17.0887H11.3915V11.3918L0 18.9043V35.8755L11.3915 45.5708H45.5888V34.177H11.3915V28.4802H45.5888Z" fill="white"></path><path d="M136.622 3.05176e-05V45.5704H170.799L182.19 34.179V0.00232803H136.622V3.05176e-05ZM148.016 11.3915H170.801V31.0872L167.712 34.1767H148.016V11.3915Z" fill="white"></path></svg>