<svg width="704" height="85" viewBox="0 0 704 85" fill="none" xmlns="http://www.w3.org/2000/svg">
<path fill-rule="evenodd" clip-rule="evenodd" d="M137.157 11.7991C138.227 11.7991 138.762 12.3266 138.762 13.3818V37.6591H184.772V13.3818C184.772 12.3266 185.307 11.7991 186.377 11.7991H194.223C195.384 11.7991 195.916 12.3266 195.916 13.3818V71.7875C195.916 72.8427 195.384 73.3703 194.223 73.3703H186.377C185.307 73.3703 184.772 72.8427 184.772 71.7875V46.9826H138.762V71.7875C138.762 72.8427 138.227 73.3703 137.157 73.3703H129.31C128.241 73.3703 127.706 72.8427 127.706 71.7875V13.3818C127.706 12.3266 128.241 11.7991 129.31 11.7991H137.157Z" fill="black"/>
<path fill-rule="evenodd" clip-rule="evenodd" d="M230.972 51.6446H266.64L250.143 22.6191C249.787 22.0885 249.521 22.0021 249.074 22.0021H248.536C248.092 22.0021 247.826 22.0885 247.469 22.6191L230.972 51.6446ZM250.501 11.7994C254.335 11.7994 256.565 12.9439 259.06 17.3404L290.269 71.612C290.892 72.6671 290.626 73.3706 289.378 73.3706H280.28C279.389 73.3706 278.945 73.1053 278.498 72.4048L271.454 60.0024H226.25L219.295 72.4048C218.939 73.1053 218.491 73.3706 217.509 73.3706H208.146C206.992 73.3706 206.723 72.6671 207.255 71.612L238.285 17.3404C240.781 12.9439 243.01 11.7994 246.135 11.7994H250.501Z" fill="black"/>
<path fill-rule="evenodd" clip-rule="evenodd" d="M307.491 11.7991C308.561 11.7991 309.096 12.3266 309.096 13.3818V49.0959C309.096 59.7368 312.483 63.1675 323.094 63.1675H359.206C360.367 63.1675 360.901 63.6951 360.901 64.7532V71.7875C360.901 72.8427 360.367 73.3703 359.206 73.3703H322.737C304.814 73.3703 298.04 67.0364 298.04 50.1481V13.3818C298.04 12.3266 298.575 11.7991 299.644 11.7991H307.491Z" fill="black"/>
<path fill-rule="evenodd" clip-rule="evenodd" d="M384.005 46.1025V62.3768C384.005 63.1697 384.361 63.5184 385.075 63.5184H424.308C430.194 63.5184 432.599 61.4081 432.599 56.7464V52.9639C432.599 48.5645 430.372 46.1025 422.613 46.1025H384.005ZM384.005 38.1889H422.613C430.372 38.1889 432.421 35.8997 432.421 31.6761V28.3348C432.421 23.7625 430.103 21.6492 424.13 21.6492H385.075C384.361 21.6492 384.005 22.0874 384.005 22.7938V38.1889ZM426.36 11.7982C438.485 11.7982 443.12 16.5494 443.12 26.0457V30.3587C443.12 35.548 441.071 39.4199 436.793 41.7924C441.428 44.0786 443.567 47.9505 443.567 53.3156V58.5914C443.567 67.7419 439.464 73.3694 427.695 73.3694H375.626C373.841 73.3694 372.949 72.4931 372.949 70.7315V14.4361C372.949 12.6775 373.841 11.7982 375.626 11.7982H426.36Z" fill="black"/>
<path fill-rule="evenodd" clip-rule="evenodd" d="M466.669 49.3567C466.669 60.0006 470.059 63.3419 480.67 63.3419H507.063C517.762 63.3419 521.061 60.0006 521.061 49.3567V35.8127C521.061 25.1688 517.762 21.8275 507.063 21.8275H480.67C470.059 21.8275 466.669 25.1688 466.669 35.8127V49.3567ZM507.51 11.7976C525.43 11.7976 532.204 18.1315 532.204 35.0198V50.1496C532.204 67.0379 525.43 73.3718 507.51 73.3718H480.314C462.39 73.3718 455.613 67.0379 455.613 50.1496V35.0198C455.613 18.1315 462.39 11.7976 480.314 11.7976H507.51Z" fill="black"/>
<path fill-rule="evenodd" clip-rule="evenodd" d="M556.651 44.4318H593.477C600.698 44.4318 603.375 41.2663 603.375 34.9295V31.15C603.375 24.8162 600.698 21.6477 593.477 21.6477H557.721C557.008 21.6477 556.651 21.913 556.651 22.7059V44.4318ZM595.616 11.7997C609.083 11.7997 614.518 18.0412 614.518 29.7402V34.5808C614.518 44.7835 610.418 50.7657 600.523 52.1725L616.657 71.4364C617.195 72.0534 617.017 73.3709 615.678 73.3709H606.406C605.158 73.3709 604.711 73.0192 604.266 72.4051L589.02 53.2277H556.651V71.7882C556.651 72.8433 556.116 73.3709 555.047 73.3709H547.2C546.131 73.3709 545.596 72.8433 545.596 71.7882V14.4376C545.596 12.679 546.487 11.7997 548.273 11.7997H595.616Z" fill="black"/>
<path fill-rule="evenodd" clip-rule="evenodd" d="M642.799 11.7991C647.522 11.7991 648.594 12.7648 651.446 16.1091L690.233 62.2852C690.589 62.7294 690.949 62.9052 691.481 62.9052H692.372C692.91 62.9052 693.176 62.6399 693.176 62.0259V13.3818C693.176 12.3266 693.62 11.7991 694.78 11.7991H702.361C703.428 11.7991 703.965 12.3266 703.965 13.3818V65.6325C703.965 71.6117 701.736 73.3703 697.101 73.3703H690.768C686.308 73.3703 685.06 72.5804 682.12 69.0602L643.243 22.8811C642.887 22.44 642.53 22.2671 641.995 22.2671H641.104C640.569 22.2671 640.391 22.5324 640.391 23.1464V71.7875C640.391 72.8427 639.853 73.3703 638.699 73.3703H631.118C630.045 73.3703 629.514 72.8427 629.514 71.7875V19.5398C629.514 13.5577 631.744 11.7991 636.291 11.7991H642.799Z" fill="black"/>
<mask id="mask0" mask-type="alpha" maskUnits="userSpaceOnUse" x="0" y="0" width="57" height="85">
<path fill-rule="evenodd" clip-rule="evenodd" d="M0 0.787079H56.6335V84.3814H0V0.787079Z" fill="white"/>
</mask>
<g mask="url(#mask0)">
<path fill-rule="evenodd" clip-rule="evenodd" d="M14.2386 84.3822H1.65721C0.46373 84.3822 -0.361129 83.1155 0.158562 82.0871L41.0812 1.57397C41.329 1.08812 41.8305 0.787079 42.3955 0.787079H54.9739C56.1674 0.787079 56.9952 2.05385 56.4755 3.07919L15.5529 83.5924C15.3082 84.0782 14.8036 84.3822 14.2386 84.3822" fill="#8FC63E"/>
</g>
<mask id="mask1" mask-type="alpha" maskUnits="userSpaceOnUse" x="38" y="0" width="58" height="85">
<path fill-rule="evenodd" clip-rule="evenodd" d="M38.8716 0.787079H95.7396V84.3814H38.8716V0.787079Z" fill="white"/>
</mask>
<g mask="url(#mask1)">
<path fill-rule="evenodd" clip-rule="evenodd" d="M53.3344 84.3822H40.3361C39.2846 84.3822 38.5504 83.2645 39.0127 82.3554L80.1166 1.48455C80.3372 1.05236 80.7783 0.787079 81.2768 0.787079H94.2752C95.3266 0.787079 96.0608 1.90482 95.5986 2.81094L54.4946 83.6878C54.2771 84.114 53.8329 84.3822 53.3344 84.3822" fill="#8FC63E"/>
</g>
</svg>
