<svg width="86" height="50" fill="none" xmlns="http://www.w3.org/2000/svg"><path d="M15.379 21.203H9.42L4.18 2.73H1.528l1.934 1.81v16.662H.374V0h5.99l5.178 18.533h2.682L12.29 16.6V0h3.089v21.203zM14.224 31.467H3.088V47.33h7.3v-7.948H5.364l2.714-2.639h5.397V50h-3.089v-2.27L8.08 50H2.683L0 47.33V31.468l2.683-2.67h8.828l2.713 2.67zM31.305 50h-3.057v-7.947h-7.33V50H17.83V31.467l2.713-2.67h10.762V50zm-1.123-18.533h-9.264v10.218l2.34-2.302h4.99V33.37l1.934-1.902zM53.201 49.97h-3.088v-16.6l1.934-1.873H49.52l-4.149 7.886h-2.246l-3.992-7.886h-2.496l1.934 1.872v16.6h-3.088V28.797h5.521l3.213 6.966h.375l3.275-6.966H53.2V49.97zM68.127 50H57.366V34.075l2.713-2.608h-3.088v-2.67h11.136v2.67h-7.673v7.548l2.277-2.27h5.396v2.638h-7.673v7.947h7.673V50zM85.476 31.467H74.87v5.277h7.144l2.651 2.64v7.947L82.014 50h-7.55l-2.682-2.67v-2.117l3.088-2.915v5.032h6.707v-7.947h-7.112l-2.683-2.639v-5.277l2.683-2.67h8.297l2.714 2.67zM55.386 13.286h-7.674v7.947h-3.088V5.308L47.338 2.7H44.25V.03h11.136V2.7h-7.674v10.218l2.278-2.301h5.396v2.67zM71.218 2.7h-4.835v18.534h-3.088V2.7H58.49V.03h12.727V2.7z" fill="#2263FF"></path><path fill-rule="evenodd" clip-rule="evenodd" d="M37.717 14.016l-2.174 2.563H31.62L30 14.544l-1.641 1.992-3.869.043-2.174-2.563a7.738 7.738 0 0015.401 0zm-.708-4.069a7.738 7.738 0 00-6.992-4.42 7.738 7.738 0 00-6.993 4.42H37.01z" fill="#FF284A"></path><path fill-rule="evenodd" clip-rule="evenodd" d="M37.633 12.158H22.316a7.7 7.7 0 01.242-1.105H37.39c.106.358.188.727.242 1.105zM32.374 4.224c0 .178-.008.344-.024.498a8.854 8.854 0 00-2.297-.301c-.717 0-1.415.085-2.082.247a5.043 5.043 0 01-.018-.444V.21A11.581 11.581 0 0130.163 0c.76 0 1.5.073 2.21.211v4.013zm-5.527 0c0 .263.028.519.08.766a8.87 8.87 0 00-5.074 4.957h-1.748V8.72c0-3.808 2.817-7.046 6.742-8.234v3.739zm-6.742 11.25h1.384a8.814 8.814 0 001.67 3.327V21l-3.054-2.893v-2.633zm18.511 0a8.807 8.807 0 01-1.449 3.04v2.457l3.054-2.864v-2.633h-1.605zm-.364-5.527h1.97V8.72c0-3.808-2.817-7.046-6.743-8.234v3.739c0 .291-.034.574-.097.845a8.871 8.871 0 014.87 4.878zM19 11.053h2.21v3.315H19v-3.315zm19.895 0h2.21v3.315h-2.21v-3.315z" fill="#2263FF"></path></svg>