<svg width="40" height="40" viewBox="0 0 40 40" fill="none" xmlns="http://www.w3.org/2000/svg">
<circle opacity="0.5" cx="20" cy="20" r="19.5" stroke="#E4609E"/>
<path d="M20 13.4413C22.136 13.4413 22.3893 13.4493 23.2327 13.488C24.1433 13.5293 24.988 13.712 25.638 14.362C26.288 15.012 26.4707 15.8567 26.512 16.7673C26.5507 17.6107 26.5587 17.864 26.5587 20C26.5587 22.136 26.5507 22.3893 26.512 23.2327C26.4707 24.1433 26.288 24.988 25.638 25.638C24.988 26.288 24.1433 26.4707 23.2327 26.512C22.3893 26.5507 22.136 26.5587 20 26.5587C17.864 26.5587 17.6107 26.5507 16.7673 26.512C15.8567 26.4707 15.012 26.288 14.362 25.638C13.712 24.988 13.5293 24.1433 13.488 23.2327C13.4493 22.3893 13.4413 22.136 13.4413 20C13.4413 17.864 13.4493 17.6107 13.488 16.7673C13.5293 15.8567 13.712 15.012 14.362 14.362C15.012 13.712 15.8567 13.5293 16.7673 13.488C17.6107 13.4493 17.864 13.4413 20 13.4413ZM20 12C17.8273 12 17.5547 12.0093 16.7013 12.048C15.4013 12.1073 14.2593 12.426 13.3427 13.3427C12.426 14.2593 12.1073 15.4013 12.048 16.7013C12.0093 17.5547 12 17.8273 12 20C12 22.1727 12.0093 22.4453 12.048 23.2987C12.1073 24.5987 12.426 25.7407 13.3427 26.6573C14.2593 27.574 15.4013 27.8927 16.7013 27.952C17.5547 27.9907 17.8273 28 20 28C22.1727 28 22.4453 27.9907 23.2987 27.952C24.5987 27.8927 25.7407 27.574 26.6573 26.6573C27.574 25.7407 27.8927 24.5987 27.952 23.2987C27.9907 22.4453 28 22.1727 28 20C28 17.8273 27.9907 17.5547 27.952 16.7013C27.8927 15.4013 27.574 14.2593 26.6573 13.3427C25.7407 12.426 24.5987 12.1073 23.2987 12.048C22.4453 12.0093 22.1727 12 20 12Z" fill="#E4609E"/>
<path d="M20 15.8921C17.7313 15.8921 15.892 17.7314 15.892 20.0001C15.892 22.2688 17.7313 24.1081 20 24.1081C22.2687 24.1081 24.108 22.2688 24.108 20.0001C24.108 17.7314 22.2687 15.8921 20 15.8921ZM20 22.6668C18.5273 22.6668 17.3333 21.4728 17.3333 20.0001C17.3333 18.5274 18.5273 17.3334 20 17.3334C21.4727 17.3334 22.6667 18.5274 22.6667 20.0001C22.6667 21.4728 21.4727 22.6668 20 22.6668Z" fill="#E4609E"/>
<path d="M24.2707 16.6895C24.8009 16.6895 25.2307 16.2597 25.2307 15.7295C25.2307 15.1993 24.8009 14.7695 24.2707 14.7695C23.7405 14.7695 23.3107 15.1993 23.3107 15.7295C23.3107 16.2597 23.7405 16.6895 24.2707 16.6895Z" fill="#E4609E"/>
</svg>
