<svg width="40" height="40" viewBox="0 0 40 40" fill="none" xmlns="http://www.w3.org/2000/svg">
<circle opacity="0.5" cx="20" cy="20" r="19.5" stroke="#E4609E"/>
<g clip-path="url(#clip0)">
<path d="M27.996 28V27.9993H28V22.1313C28 19.2606 27.382 17.0493 24.026 17.0493C22.4126 17.0493 21.33 17.9347 20.888 18.774H20.8413V17.3173H17.6593V27.9993H20.9726V22.71C20.9726 21.3173 21.2366 19.9707 22.9613 19.9707C24.6606 19.9707 24.686 21.56 24.686 22.7993V28H27.996Z" fill="#E4609E"/>
<path d="M12.264 17.3179H15.5813V27.9999H12.264V17.3179Z" fill="#E4609E"/>
<path d="M13.9213 12C12.8607 12 12 12.8607 12 13.9213C12 14.982 12.8607 15.8607 13.9213 15.8607C14.982 15.8607 15.8427 14.982 15.8427 13.9213C15.842 12.8607 14.9813 12 13.9213 12V12Z" fill="#E4609E"/>
</g>
<defs>
<clipPath id="clip0">
<rect width="16" height="16" fill="white" transform="translate(12 12)"/>
</clipPath>
</defs>
</svg>
