<svg width="40" height="40" viewBox="0 0 40 40" fill="none" xmlns="http://www.w3.org/2000/svg">
<circle opacity="0.5" cx="20" cy="20" r="19.5" stroke="#E4609E"/>
<path d="M28 15.0665C27.4 15.3332 26.8 15.5332 26.1333 15.5999C26.8 15.1999 27.3333 14.5332 27.6 13.7999C26.9333 14.1999 26.2667 14.4665 25.5333 14.5999C24.9333 13.9332 24.0667 13.5332 23.1333 13.5332C21.3333 13.5332 19.8667 14.9999 19.8667 16.7999C19.8667 17.0665 19.8667 17.3332 19.9333 17.5332C17.1333 17.3999 14.7333 16.0665 13.1333 14.0665C12.8 14.5999 12.6667 15.1332 12.6667 15.7332C12.6667 16.8665 13.2667 17.8665 14.1333 18.4665C13.6 18.4665 13.0667 18.3332 12.6667 18.0665C12.6667 18.0665 12.6667 18.0665 12.6667 18.1332C12.6667 19.7332 13.8 21.0665 15.2667 21.3332C15 21.3999 14.7333 21.4665 14.4 21.4665C14.2 21.4665 14 21.4665 13.8 21.3999C14.2 22.7332 15.4 23.6665 16.8667 23.6665C15.7333 24.5332 14.3333 25.0665 12.8 25.0665C12.5333 25.0665 12.2667 25.0665 12 24.9999C13.4667 25.9332 15.2 26.4665 17 26.4665C23.0667 26.4665 26.3333 21.4665 26.3333 17.1332C26.3333 16.9999 26.3333 16.8665 26.3333 16.7332C27 16.2665 27.5333 15.6665 28 15.0665Z" fill="#E4609E"/>
</svg>
